<svg xmlns="http://www.w3.org/2000/svg" width="16" height="32" viewBox="0 0 16 32">
  <g id="p_next" transform="translate(-245.255 -304.255)">
    <g id="arrow" transform="translate(-1276.49 279.51)">
      <rect id="Rectangle_1797" data-name="Rectangle 1797" width="16" height="16" transform="translate(1521.745 24.745)" fill="none"/>
      <path id="XMLID_225_" d="M12.278,75.166a.566.566,0,0,0-.8,0L6.222,80.422.966,75.166a.566.566,0,0,0-.8.8l5.656,5.656a.566.566,0,0,0,.8,0l5.656-5.656a.566.566,0,0,0,0-.8Z" transform="translate(1451.351 38.967) rotate(-90)"/>
    </g>
    <g id="arrow-2" data-name="arrow" transform="translate(-1276.49 295.51)">
      <rect id="Rectangle_1797-2" data-name="Rectangle 1797" width="16" height="16" transform="translate(1521.745 24.745)" fill="none"/>
      <path id="XMLID_225_2" data-name="XMLID_225_" d="M12.278,75.166a.566.566,0,0,0-.8,0L6.222,80.422.966,75.166a.566.566,0,0,0-.8.8l5.656,5.656a.566.566,0,0,0,.8,0l5.656-5.656a.566.566,0,0,0,0-.8Z" transform="translate(1451.351 38.967) rotate(-90)" fill="#fff"/>
    </g>
  </g>
</svg>
