<svg xmlns="http://www.w3.org/2000/svg" width="20" height="20" viewBox="0 0 20 20">
  <g id="axtar" transform="translate(-1424.948 -311.948)">
    <rect id="Rectangle_17" data-name="Rectangle 17" width="20" height="20" transform="translate(1424.948 311.948)" fill="none"/>
    <path id="Path_4933" data-name="Path 4933" d="M21.585-4025.109l-4.4-4.33A7.933,7.933,0,0,1,12.5-4027.9a7.786,7.786,0,0,1-7.836-7.716,7.786,7.786,0,0,1,7.836-7.717,7.788,7.788,0,0,1,7.837,7.717,7.62,7.62,0,0,1-1.814,4.923l4.363,4.294a.9.9,0,0,1,.272.647.905.905,0,0,1-.273.647.917.917,0,0,1-.649.265A.914.914,0,0,1,21.585-4025.109ZM6.505-4035.62a5.95,5.95,0,0,0,5.993,5.892,5.949,5.949,0,0,0,5.993-5.892,5.95,5.95,0,0,0-5.993-5.892A5.95,5.95,0,0,0,6.505-4035.62Z" transform="translate(1421.039 4356.038)" fill="#004a87"/>
  </g>
</svg>
